<svg t="1567749769518" class="icon" viewBox="0 0 1024 1024" version="1.1" xmlns="http://www.w3.org/2000/svg" p-id="2051" width="32" height="32"><path d="M513.820462 947.106726l-15.72617-18.476817c-12.573363-15.533788-307.98549-382.589628-307.98549-568.17337 0-174.905542 123.336026-283.563264 321.886081-283.563264 205.876927 0 320.192509 100.642165 321.886081 283.397489 1.056052 114.918309-97.184413 299.105239-291.998377 547.444257-7.893784 10.067286-13.0799 16.59905-14.616906 18.939351L513.820462 947.106726zM511.995907 112.658849c-179.157379 0-286.12153 92.634794-286.12153 247.797689 0 151.08502 226.396263 451.457112 285.876959 527.745612 0.63752-0.812505 1.300622-1.658779 1.99954-2.540869 236.254795-301.174364 285.047058-451.753871 284.366559-525.038968C796.222273 155.679665 641.478933 112.658849 511.995907 112.658849z" p-id="2052" fill="#8a8a8a"></path><path d="M511.995907 506.075057c-69.02405 0-125.177977-56.153928-125.177977-125.177977s56.153928-125.177977 125.177977-125.177977 125.177977 56.153928 125.177977 125.177977S581.019956 506.075057 511.995907 506.075057zM511.995907 291.484677c-49.299823 0-89.413426 40.113603-89.413426 89.413426s40.113603 89.413426 89.413426 89.413426c49.299823 0 89.413426-40.113603 89.413426-89.413426S561.294706 291.484677 511.995907 291.484677z" p-id="2053" fill="#8a8a8a"></path></svg>