<svg t="1567757181509" class="icon" viewBox="0 0 1024 1024" version="1.1" xmlns="http://www.w3.org/2000/svg" p-id="4916" width="20" height="20"><path d="M159.744 96.256l704.512 0c26.624 0 48.128-21.504 48.128-48.128S890.88 0 864.256 0L159.744 0c-26.624 0-48.128 21.504-48.128 48.128S133.12 96.256 159.744 96.256z" p-id="4917"></path><path d="M905.216 185.344 983.04 391.168c-3.072 45.056-40.96 79.872-87.04 79.872-48.128 0-87.04-38.912-87.04-87.04l-81.92 0c0 48.128-38.912 87.04-87.04 87.04S552.96 432.128 552.96 384l-81.92 0c0 48.128-38.912 87.04-87.04 87.04S296.96 432.128 296.96 384l-81.92 0c0 48.128-38.912 87.04-87.04 87.04C81.92 471.04 45.056 435.2 40.96 391.168l76.8-205.824L905.216 185.344M933.888 144.384 90.112 144.384 0 384C0 454.656 57.344 512 128 512S256 454.656 256 384C256 454.656 313.344 512 384 512S512 454.656 512 384C512 454.656 569.344 512 640 512S768 454.656 768 384C768 454.656 825.344 512 896 512S1024 454.656 1024 384L933.888 144.384 933.888 144.384z" p-id="4918"></path><path d="M799.744 1024 224.256 1024c-73.728 0-133.12-59.392-133.12-133.12L91.136 561.152l40.96 0L132.096 890.88c0 51.2 40.96 92.16 92.16 92.16l574.464 0c51.2 0 92.16-40.96 92.16-92.16L890.88 561.152l40.96 0L931.84 890.88C932.864 964.608 872.448 1024 799.744 1024z" p-id="4919"></path></svg>