<svg t="1567758074732" class="icon" viewBox="0 0 1024 1024" version="1.1" xmlns="http://www.w3.org/2000/svg" p-id="8912" width="32" height="32"><path d="M511.5 478.3c-63.3 0-122.9-24.7-167.7-69.5-44.8-44.8-69.5-104.4-69.5-167.7S299 118.3 343.8 73.5 448.2 4 511.5 4c63.3 0 122.9 24.7 167.7 69.5 44.8 44.8 69.5 104.4 69.5 167.7S724 364.1 679.2 408.9c-44.8 44.8-104.4 69.4-167.7 69.4z m0-394.3c-86.7 0-157.2 70.5-157.2 157.2s70.5 157.2 157.2 157.2c86.7 0 157.2-70.5 157.2-157.2S598.2 84 511.5 84zM880.6 1024c-22.1 0-40-17.9-40-40V777.2c0-84.1-65.3-153.3-147.9-159.5l-93.5 66.6c-52.1 37.1-122.1 37.2-174.3 0.3l-94.6-66.9c-82.6 6.2-147.9 75.4-147.9 159.5V984c0 22.1-17.9 40-40 40s-40-17.9-40-40V777.2c0-64.1 25-124.4 70.3-169.7 45.3-45.3 105.6-70.3 169.7-70.3 8.3 0 16.3 2.6 23.1 7.3l105.6 74.7c24.5 17.3 57.3 17.2 81.7-0.1l104.6-74.5c6.8-4.8 14.9-7.4 23.2-7.4 64.1 0 124.4 25 169.7 70.3 45.3 45.3 70.3 105.6 70.3 169.7V984c0 22.1-17.9 40-40 40z" fill="#707070" p-id="8913"></path><path d="M282 1024c-22.1 0-40-17.9-40-40v-96c0-22.1 17.9-40 40-40s40 17.9 40 40v96c0 22.1-17.9 40-40 40zM741 1024c-22.1 0-40-17.9-40-40v-96c0-22.1 17.9-40 40-40s40 17.9 40 40v96c0 22.1-17.9 40-40 40zM692 244.6H167c-22.1 0-40-17.9-40-40s17.9-40 40-40h525c22.1 0 40 17.9 40 40s-17.9 40-40 40z" fill="#707070" p-id="8914"></path></svg>